<mxfile modified="2020-11-26T11:20:47.629Z" host="app.diagrams.net" agent="5.0 (Macintosh; Intel Mac OS X 10_15_7) AppleWebKit/537.36 (KHTML, like Gecko) Chrome/86.0.4240.198 Safari/537.36" etag="28SMXgnv5paTWOsCMd4X" version="13.8.8" type="github">
  <diagram id="Ht1M8jgEwFfnCIfOTk4-" name="Page-1">
    <mxGraphModel dx="1298" dy="770" grid="1" gridSize="10" guides="1" tooltips="1" connect="1" arrows="1" fold="1" page="1" pageScale="1" pageWidth="1169" pageHeight="827" math="0" shadow="0">
      <root>
        <mxCell id="0" />
        <mxCell id="1" parent="0" />
        <mxCell id="l3vL0S8qQFPJ-LsvamBz-8" value="" style="whiteSpace=wrap;html=1;" vertex="1" parent="1">
          <mxGeometry x="300" y="100" width="490" height="240" as="geometry" />
        </mxCell>
        <mxCell id="l3vL0S8qQFPJ-LsvamBz-3" value="" style="edgeStyle=orthogonalEdgeStyle;rounded=0;orthogonalLoop=1;jettySize=auto;html=1;" edge="1" parent="1" source="l3vL0S8qQFPJ-LsvamBz-1" target="l3vL0S8qQFPJ-LsvamBz-2">
          <mxGeometry relative="1" as="geometry" />
        </mxCell>
        <object label="" cos="" id="l3vL0S8qQFPJ-LsvamBz-1">
          <mxCell style="outlineConnect=0;fontColor=#232F3E;gradientColor=#60A337;gradientDirection=north;fillColor=#277116;strokeColor=#ffffff;dashed=0;verticalLabelPosition=bottom;verticalAlign=top;align=center;html=1;fontSize=12;fontStyle=0;aspect=fixed;shape=mxgraph.aws4.resourceIcon;resIcon=mxgraph.aws4.s3;" vertex="1" parent="1">
            <mxGeometry x="320" y="480" width="78" height="78" as="geometry" />
          </mxCell>
        </object>
        <mxCell id="l3vL0S8qQFPJ-LsvamBz-2" value="" style="outlineConnect=0;fontColor=#232F3E;gradientColor=none;fillColor=#277116;strokeColor=none;dashed=0;verticalLabelPosition=bottom;verticalAlign=top;align=center;html=1;fontSize=12;fontStyle=0;aspect=fixed;pointerEvents=1;shape=mxgraph.aws4.glacier;" vertex="1" parent="1">
          <mxGeometry x="321.5" y="622" width="75" height="78" as="geometry" />
        </mxCell>
        <mxCell id="l3vL0S8qQFPJ-LsvamBz-5" value="冷热过度和归档存储" style="text;html=1;resizable=0;autosize=1;align=center;verticalAlign=middle;points=[];fillColor=none;strokeColor=none;rounded=0;" vertex="1" parent="1">
          <mxGeometry x="299" y="700" width="120" height="20" as="geometry" />
        </mxCell>
        <mxCell id="l3vL0S8qQFPJ-LsvamBz-6" value="" style="outlineConnect=0;fontColor=#232F3E;gradientColor=#F78E04;gradientDirection=north;fillColor=#D05C17;strokeColor=#ffffff;dashed=0;verticalLabelPosition=bottom;verticalAlign=top;align=center;html=1;fontSize=12;fontStyle=0;aspect=fixed;shape=mxgraph.aws4.resourceIcon;resIcon=mxgraph.aws4.eks;" vertex="1" parent="1">
          <mxGeometry x="300" y="262" width="78" height="78" as="geometry" />
        </mxCell>
        <mxCell id="l3vL0S8qQFPJ-LsvamBz-7" value="容器服务EKS" style="text;html=1;resizable=0;autosize=1;align=center;verticalAlign=middle;points=[];fillColor=none;strokeColor=none;rounded=0;" vertex="1" parent="1">
          <mxGeometry x="300" y="340" width="90" height="20" as="geometry" />
        </mxCell>
        <mxCell id="l3vL0S8qQFPJ-LsvamBz-9" value="" style="outlineConnect=0;fontColor=#232F3E;gradientColor=#F78E04;gradientDirection=north;fillColor=#D05C17;strokeColor=#ffffff;dashed=0;verticalLabelPosition=bottom;verticalAlign=top;align=center;html=1;fontSize=12;fontStyle=0;aspect=fixed;shape=mxgraph.aws4.resourceIcon;resIcon=mxgraph.aws4.eks;" vertex="1" parent="1">
          <mxGeometry x="390" y="262" width="78" height="78" as="geometry" />
        </mxCell>
        <mxCell id="l3vL0S8qQFPJ-LsvamBz-4" value="对象存储COS" style="text;html=1;resizable=0;autosize=1;align=center;verticalAlign=middle;points=[];fillColor=none;strokeColor=none;rounded=0;" vertex="1" parent="1">
          <mxGeometry x="320" y="570" width="90" height="20" as="geometry" />
        </mxCell>
        <mxCell id="l3vL0S8qQFPJ-LsvamBz-10" value="" style="edgeStyle=orthogonalEdgeStyle;rounded=0;orthogonalLoop=1;jettySize=auto;html=1;" edge="1" parent="1" source="l3vL0S8qQFPJ-LsvamBz-1" target="l3vL0S8qQFPJ-LsvamBz-4">
          <mxGeometry relative="1" as="geometry">
            <mxPoint x="365" y="558" as="sourcePoint" />
            <mxPoint x="359.0999999999999" y="610" as="targetPoint" />
            <Array as="points">
              <mxPoint x="365" y="540" />
              <mxPoint x="365" y="540" />
            </Array>
          </mxGeometry>
        </mxCell>
      </root>
    </mxGraphModel>
  </diagram>
</mxfile>
